<svg width="40" height="40" viewBox="0 0 40 40" fill="none" xmlns="http://www.w3.org/2000/svg">
<g clip-path="url(#clip0_91_1202)">
<path d="M34.8278 22.1775C36.3831 22.0579 37.6393 23.0748 37.7589 24.6302C37.8786 26.2453 36.742 27.5613 35.1867 27.681C33.6912 27.8006 32.3752 26.664 32.2555 25.1685C32.1359 23.5534 33.2126 22.357 34.8278 22.1775Z" fill="#86DA2F"/>
<path d="M15.9248 34.9194C15.9248 33.3641 17.1212 32.1677 18.5569 32.1677C19.9926 32.1677 21.3684 33.4838 21.3684 34.9793C21.3684 36.4149 20.172 37.6712 18.7962 37.731C17.0614 37.731 15.9248 36.6542 15.9248 34.9194Z" fill="#24C2FF"/>
<path d="M20.1721 17.4522C19.9329 17.5719 19.8132 17.3924 19.7534 17.213C17.5401 13.0854 18.1981 7.88105 22.0864 4.77042C23.1033 3.93294 25.0175 3.75348 25.855 4.59096C26.2139 4.89006 26.2738 5.24898 26.3336 5.66772C26.4532 6.56502 26.6327 7.46231 27.2309 8.18015C27.8889 8.95781 28.7264 9.25691 29.6835 9.19709C30.521 9.19709 31.3584 9.07745 31.8968 10.0346C32.1959 10.5729 32.0763 12.6666 31.5977 13.0854C31.3584 13.2648 31.179 13.1452 30.9995 13.0854C29.6237 12.547 28.188 12.547 26.7523 12.7863C26.2738 12.8461 26.0345 12.7265 26.0345 12.1881C25.9747 11.2908 25.7952 10.4533 25.3166 9.67565C24.4193 8.06051 22.7444 8.00069 21.6676 9.49619C20.7703 10.6926 20.5311 12.1283 20.2918 13.5639C20.0525 14.8202 20.1123 16.1362 20.1721 17.4522Z" fill="#FFCB12"/>
<path d="M21.6675 18.349C21.5478 18.1696 21.6076 17.9901 21.7871 17.8705C25.1968 14.7598 30.2815 14.1616 34.2296 17.2124C35.2466 18.0499 35.9046 19.7847 35.3662 20.8016C35.1269 21.2204 34.8278 21.3998 34.4689 21.5195C33.6314 21.8784 32.8538 22.2373 32.3154 23.015C31.777 23.7926 31.6574 24.6899 31.8967 25.647C32.0761 26.4247 32.3752 27.2622 31.5976 27.98C31.1788 28.3988 29.145 28.7577 28.6066 28.3988C28.3673 28.2193 28.4271 28.0398 28.4869 27.8006C28.6664 26.3051 28.3075 24.9292 27.7691 23.6132C27.5896 23.1346 27.6495 22.8953 28.128 22.7757C28.9655 22.5364 29.7431 22.1177 30.3413 21.5195C31.6574 20.2633 31.3583 18.6481 29.6235 17.9303C28.2477 17.3321 26.812 17.4517 25.4361 17.5714C24.1201 17.6312 22.8639 17.9901 21.6675 18.349Z" fill="#86DA2F"/>
<path d="M20.8898 19.9048C21.0692 19.7253 21.1889 19.7851 21.3683 19.9048C25.3164 22.2975 27.3503 27.0233 25.5557 31.6294C25.0772 32.8258 23.5218 34.0222 22.3853 33.7231C21.9067 33.6035 21.6674 33.3642 21.4281 33.0651C20.8898 32.3473 20.2916 31.6893 19.3943 31.3902C18.4371 31.0911 17.5997 31.2705 16.7622 31.7491C16.0444 32.1678 15.3265 32.7062 14.4292 32.1678C13.8908 31.8687 12.9935 30.0143 13.173 29.4161C13.2926 29.1768 13.5319 29.1768 13.7712 29.1768C15.2667 28.9375 16.4631 28.2197 17.5997 27.2626C17.9586 26.9635 18.2577 26.9635 18.5568 27.3822C19.0353 28.1001 19.6335 28.6983 20.4112 29.117C21.9665 30.0143 23.462 29.2366 23.6415 27.4421C23.8209 25.9466 23.2826 24.6305 22.804 23.3145C22.2656 22.1181 21.6076 20.9815 20.8898 19.9048Z" fill="#24C2FF"/>
<path d="M18.9757 20.264C18.7364 21.4604 18.198 22.5969 17.4802 23.6139C15.3267 26.8441 12.216 28.1602 8.38757 27.8013C7.01171 27.6816 5.87514 26.545 5.7555 25.4085C5.69568 24.9299 5.81532 24.571 6.11442 24.2121C6.53316 23.6737 6.89207 23.1951 7.07153 22.5371C7.43045 21.2211 6.9519 20.1443 5.99478 19.1872C4.67874 17.8712 4.8582 16.6748 6.41352 15.7176C6.59298 15.598 6.83226 15.4784 7.07153 15.3587C7.43045 15.1793 7.72955 15.1793 7.84919 15.598C8.38757 16.9739 9.46433 17.9908 10.6607 18.8283C11.0795 19.1872 11.0795 19.4265 10.7205 19.8452C10.0027 20.6229 9.58397 21.58 9.52415 22.6567C9.40451 23.9728 10.1822 24.8103 11.4982 24.8103C12.3357 24.8103 13.1133 24.5112 13.8312 24.1522C15.6856 23.1951 17.1213 21.8193 18.4971 20.3836C18.6766 20.3238 18.7364 20.2041 18.9757 20.264Z" fill="#0069DA"/>
<path d="M9.16504 7.70183C9.28468 7.70183 9.58378 7.76165 9.88288 7.82147C12.0962 8.24021 13.4721 7.46255 14.1899 5.36886C14.6685 3.993 15.6854 3.57426 17.0014 4.2921C17.0613 4.2921 17.0613 4.35192 17.1211 4.35192C18.4969 5.12958 18.4969 5.24922 17.6595 6.44562C16.9416 7.40273 16.5827 8.47949 16.4032 9.61607C16.2836 10.2741 16.0443 10.3937 15.4461 10.1544C14.489 9.79553 13.4721 9.79553 12.4551 10.1544C11.3186 10.5134 10.84 11.5303 11.1989 12.6669C11.6775 14.1624 12.9935 14.8204 14.1301 15.5981C15.2667 16.3757 16.5827 16.7945 17.8389 17.3328C18.0184 17.3926 18.3175 17.3926 18.2577 17.6917C18.1978 17.8712 17.9586 17.8712 17.7193 17.8712C15.0274 17.9908 12.4551 17.5721 10.3614 15.7775C8.38738 14.1624 6.9517 12.1883 7.19098 9.43661C7.37044 8.53931 8.02846 7.88129 9.16504 7.70183Z" fill="#FF4649"/>
<path d="M4.26 24.5109C2.82433 24.6904 1.38865 23.494 1.26901 21.9985C1.14937 20.5628 2.34577 19.1271 3.72162 19.0075C5.27694 18.828 6.71262 19.9048 6.83226 21.3404C6.89208 22.7163 5.99478 24.3913 4.26 24.5109Z" fill="#0069DA"/>
<path d="M29.3843 3.21497C30.8798 3.09533 32.3155 4.29172 32.4351 5.78722C32.5547 7.2229 31.3583 8.59875 29.9227 8.71839C28.3674 8.83803 26.9915 7.70146 26.8719 6.20596C26.7522 4.71046 27.829 3.33461 29.3843 3.21497Z" fill="#FFCB12"/>
<path d="M13.7711 4.35168C13.9506 5.907 12.8738 7.22304 11.2587 7.46232C9.88285 7.64178 8.44717 6.5052 8.26771 5.18916C8.08825 3.45439 9.04537 2.19817 10.6605 2.01871C12.156 1.83925 13.5917 2.97583 13.7711 4.35168Z" fill="#FF4649"/>
</g>
<defs>
<clipPath id="clip0_91_1202">
<rect width="36.5069" height="35.731" fill="white" transform="translate(1.2605 2)"/>
</clipPath>
</defs>
</svg>
