<svg width="16" height="13" viewBox="0 0 16 13" fill="none" xmlns="http://www.w3.org/2000/svg">
<g id="sign" clip-path="url(#clip0_316_10155)">
<path id="Shape 5 copy 16" fill-rule="evenodd" clip-rule="evenodd" d="M6.61397 6.86479C6.50916 6.7597 6.38468 6.67629 6.24764 6.61932C6.11059 6.56234 5.96367 6.53291 5.81525 6.53272C5.66684 6.53252 5.51984 6.56156 5.38264 6.61817C5.24545 6.67479 5.12075 6.75787 5.01567 6.86268C4.91058 6.96749 4.82717 7.09197 4.77019 7.22901C4.71322 7.36605 4.68379 7.51298 4.68359 7.66139C4.6834 7.80981 4.71244 7.95681 4.76905 8.094C4.82567 8.2312 4.90875 8.3559 5.01356 8.46098L9.38807 12.8244L10.9887 11.2279L6.61397 6.86479Z" fill="#F4A800"/>
<path id="Shape 5 copy 15" fill-rule="evenodd" clip-rule="evenodd" d="M11.1603 4.36309L6.78596 0L5.18555 1.59637L9.55988 5.95963C9.66459 6.06525 9.78912 6.14916 9.92632 6.20656C10.0635 6.26396 10.2107 6.29372 10.3594 6.29413C10.5082 6.29454 10.6555 6.26559 10.793 6.20895C10.9305 6.15231 11.0555 6.06908 11.1608 5.96404C11.2661 5.859 11.3496 5.73422 11.4066 5.59684C11.4636 5.45945 11.4929 5.31218 11.4928 5.16345C11.4928 5.01473 11.4634 4.86747 11.4063 4.73013C11.3493 4.59279 11.2656 4.46806 11.1603 4.36309Z" fill="#F4A800"/>
<path id="Shape 5 copy 6" fill-rule="evenodd" clip-rule="evenodd" d="M6.95189 0.234352L6.78816 0L0.954139 5.80539C0.742145 6.01738 0.623047 6.30491 0.623047 6.60471C0.623047 6.90452 0.742144 7.19205 0.954139 7.40404C1.16613 7.61603 1.45366 7.73513 1.75346 7.73513C2.05327 7.73513 2.3408 7.61603 2.55279 7.40404L6.92133 3.05676C7.85399 2.12867 7.3491 0.804947 6.95189 0.234352Z" fill="#FFBB13"/>
<path id="Shape 5 copy 4" fill-rule="evenodd" clip-rule="evenodd" d="M15.224 5.42226C15.0116 5.21065 14.7241 5.09167 14.4242 5.09131C14.1244 5.09095 13.8366 5.20923 13.6236 5.42033L9.25544 9.76744C8.32278 10.6954 8.82767 12.0192 9.22505 12.5895L9.38825 12.8242L15.2223 7.01863C15.3273 6.91399 15.4107 6.78967 15.4677 6.65277C15.5246 6.51587 15.554 6.36909 15.5542 6.22081C15.5543 6.07254 15.5253 5.92569 15.4686 5.78867C15.412 5.65164 15.3289 5.52713 15.224 5.42226Z" fill="#FFBB13"/>
</g>
<defs>
<clipPath id="clip0_316_10155">
<rect width="14.7568" height="13" fill="white" transform="translate(0.621094)"/>
</clipPath>
</defs>
</svg>
