<svg width="40" height="40" viewBox="0 0 40 40" fill="none" xmlns="http://www.w3.org/2000/svg">
<g id="Frame">
<g id="Clip path group">
<mask id="mask0_91_1273" style="mask-type:luminance" maskUnits="userSpaceOnUse" x="1" y="1" width="39" height="38">
<g id="b">
<path id="Vector" d="M1.92627 1.21738H39.4925V38.7836H1.92627V1.21738Z" fill="white"/>
</g>
</mask>
<g mask="url(#mask0_91_1273)">
<path id="Vector_2" d="M39.4925 15.69L26.7548 13.5667C25.6617 11.3278 21.9335 3.69879 21.9335 3.69879L20.7157 1.21712L14.6719 13.5667L1.92627 15.6888L11.0289 25.238L8.99053 38.7827L20.7157 32.5533L32.4415 38.7795L30.3912 25.238C32.0144 23.5324 37.5446 17.7354 37.8159 17.4505L39.4925 15.69ZM28.7582 24.6247L30.4896 35.9312L20.7157 30.7398L10.9305 35.9357L12.6639 24.6247L5.04716 16.6418L15.697 14.8628L20.7077 4.61992L25.7119 14.8628L36.369 16.6418L28.7582 24.6247Z" fill="#0079C1"/>
</g>
</g>
<g id="Clip path group_2">
<mask id="mask1_91_1273" style="mask-type:luminance" maskUnits="userSpaceOnUse" x="1" y="1" width="39" height="38">
<g id="Clip path group_3">
<mask id="mask2_91_1273" style="mask-type:luminance" maskUnits="userSpaceOnUse" x="1" y="1" width="39" height="38">
<g id="d">
<path id="Vector_3" d="M1.92627 1.21762H39.4925V38.7839H1.92627V1.21762Z" fill="white"/>
</g>
</mask>
<g mask="url(#mask2_91_1273)">
<g id="f">
<path id="Vector_4" d="M1.92627 1.21762H39.4925V38.7839H1.92627V1.21762Z" fill="white"/>
</g>
</g>
</g>
</mask>
<g mask="url(#mask1_91_1273)">
<path id="Vector_5" d="M13.5353 26.709L17.0701 31.3625L18.5863 30.5532L12.7175 18.7868L20.4458 29.5662L20.7112 29.4251L23.4096 30.8604L17.4675 18.1952L27.586 33.0821L28.959 33.8078L28.7391 32.3686L22.2129 17.6037L27.8203 26.2695L27.5147 24.2522L29.2302 22.4559L26.9622 17.0173L29.895 21.7628L34.0535 17.4038L24.9199 15.8841L20.7112 7.27522L16.4991 15.8841L7.37012 17.4038L13.907 24.2522L13.5353 26.709ZM13.1637 29.1689L12.4653 33.8084L14.9327 32.4989L13.1637 29.1689Z" fill="#0079C1"/>
</g>
</g>
</g>
</svg>
