<svg width="40" height="40" viewBox="0 0 40 40" fill="none" xmlns="http://www.w3.org/2000/svg">
<g id="Frame" clip-path="url(#clip0_91_1149)">
<path id="Vector" d="M16.8531 18.5377L18.2951 19.9716L16.8531 21.4052H6.70327V26.1819L0.513428 19.9716L6.70327 13.8653V18.5377H16.8531ZM21.3147 6.33957H33.6473V18.6724H21.3147V6.33957Z" fill="#932279"/>
<path id="Vector_2" d="M21.4493 16.8531L20.0157 18.2952L18.5821 16.8531V6.7033H13.8051L20.0157 0.513458L26.1215 6.7033H21.4493V16.8531ZM21.3149 21.3147H33.6474V33.6475H21.3147L21.3149 21.3147Z" fill="#EFA724"/>
<path id="Vector_3" d="M23.1339 21.4492L21.6917 20.0156L23.1339 18.582H33.2835V13.8049L39.4737 20.0156L33.2835 26.1213V21.4492H23.1339ZM6.33948 21.3148H18.6721V33.6476H6.33948V21.3148Z" fill="#262577"/>
<path id="Vector_4" d="M18.5376 23.1339L19.9712 21.6918L21.4051 23.1339V33.2839H26.1818L19.9712 39.4738L13.8656 33.2839H18.5376V23.1339ZM6.33948 6.33957H18.6721V18.6724H6.33948V6.33957Z" fill="#9CCD2A"/>
<path id="Vector_5" d="M5.89905 5.89905H19.1126V19.1126H5.89905V5.89905ZM6.77983 18.2319H18.2315V6.78014H6.77983V18.2319ZM20.8745 5.89905H34.0881V19.1126H20.8745V5.89905ZM21.7553 18.2319H33.207V6.78014H21.7553V18.2319ZM20.8745 20.8745H34.0881V34.0884H20.8745V20.8744V20.8745ZM21.7553 33.207H33.207V21.7553H21.7553V33.207ZM5.89905 20.8745H19.1126V34.0884H5.89905V20.8744V20.8745ZM6.77983 33.207H18.2315V21.7553H6.77983V33.207Z" fill="white"/>
<path id="Vector_6" d="M9.40442 29.3371L0.0606689 19.9934L9.40426 10.65L18.748 19.9934L9.40442 29.3371ZM1.30661 19.9934L9.40442 28.0912L17.5019 19.9934L9.40411 11.8959L1.30661 19.9934ZM19.9935 18.7478L10.65 9.40433L19.9935 0.0605774L29.3369 9.40433L19.9935 18.7478ZM11.896 9.40433L19.9935 17.5018L28.0913 9.40433L19.9935 1.30651L11.896 9.40433ZM30.5829 29.3371L21.2394 19.9934L30.5829 10.65L39.9263 19.9934L30.5829 29.3371ZM22.485 19.9934L30.5829 28.0912L38.6804 19.9934L30.5829 11.8959L22.485 19.9934ZM19.9935 39.9262L10.65 30.5828L19.9935 21.2393L29.3369 30.5828L19.9935 39.9262ZM11.896 30.5828L19.9935 38.6803L28.0913 30.5828L19.9935 22.4853L11.896 30.5828Z" fill="white"/>
</g>
<defs>
<clipPath id="clip0_91_1149">
<rect width="40" height="40" fill="white"/>
</clipPath>
</defs>
</svg>
