<svg width="29" height="37" viewBox="0 0 29 37" fill="none" xmlns="http://www.w3.org/2000/svg">
<g id="Frame" clip-path="url(#clip0_91_1112)">
<g id="Group">
<path id="Vector" d="M17.337 19.2451C16.7391 19.2534 17.4501 19.5532 18.2306 19.6733C18.4339 19.5147 18.6293 19.3464 18.8162 19.1689C18.3301 19.288 17.8354 19.2907 17.337 19.2451ZM20.5459 18.4453C20.9019 17.9539 21.1614 17.4159 21.2529 16.8596C21.1731 17.2562 20.9578 17.5985 20.7552 17.9598C19.6377 18.6635 20.6501 17.542 20.7545 17.1158C19.5528 18.6282 20.5895 18.0227 20.5459 18.4453ZM21.7304 15.3631C21.8026 14.2864 21.5184 14.6268 21.423 15.0377C21.5344 15.0956 21.6226 15.7966 21.7304 15.3631ZM15.0699 0.647522C15.389 0.704747 15.7593 0.748664 15.7074 0.824854C16.0564 0.748332 16.1356 0.677798 15.0699 0.647522ZM15.7074 0.824854L15.4818 0.871433L15.6918 0.852801L15.7074 0.824854Z" fill="#A80030"/>
<path id="Vector_2" d="M25.6567 15.7713C25.6923 16.7382 25.3739 17.2073 25.0868 18.0377L24.5701 18.2959C24.1472 19.117 24.611 18.8172 24.3082 19.4703C23.6481 20.0572 22.305 21.3069 21.8751 21.421C21.5614 21.414 22.0877 21.0507 22.1566 20.9083C21.2729 21.5151 21.4476 21.8192 20.0962 22.1879L20.0566 22.1C16.7235 23.6681 12.0936 20.5606 12.1545 16.3206C12.1189 16.5898 12.0534 16.5226 11.9795 16.6314C11.8075 14.4498 12.9869 12.2586 14.9762 11.364C16.9218 10.4008 19.2029 10.796 20.5966 12.0949C19.831 11.0921 18.3072 10.0292 16.5013 10.1286C14.7323 10.1566 13.0774 11.2808 12.5251 12.5012C11.6188 13.0717 11.5137 14.7007 11.1188 14.9988C10.5875 18.9037 12.1182 20.5909 14.7077 22.5755C15.1152 22.8503 14.8225 22.8919 14.8777 23.1011C14.0173 22.6982 13.2295 22.09 12.5817 21.3455C12.9254 21.8485 13.2963 22.3376 13.7758 22.7219C12.9646 22.447 11.881 20.7562 11.5646 20.6874C12.963 23.191 17.2379 25.0781 19.4763 24.1418C18.4406 24.1801 17.1248 24.1631 15.961 23.7329C15.4722 23.4814 14.8075 22.9604 14.9263 22.8629C17.9812 24.0041 21.1369 23.7273 23.7802 21.6083C24.4526 21.0846 25.1872 20.1936 25.3995 20.1813C25.0798 20.6621 25.4541 20.4125 25.2085 20.8371C25.8786 19.7565 24.9174 20.3972 25.9012 18.9709L26.2645 19.4713C26.1294 18.5744 27.3784 17.4851 27.2517 16.0664C27.5381 15.6326 27.5714 16.5332 27.2673 17.5313C27.6892 16.4241 27.3784 16.2461 27.4869 15.3325C27.604 15.6396 27.7577 15.9659 27.8366 16.29C27.5617 15.22 28.1187 14.4881 28.2564 13.8662C28.1207 13.806 27.8322 14.3393 27.7664 13.0754C27.776 12.5264 27.9191 12.7876 27.9743 12.6525C27.8665 12.5906 27.5837 12.1698 27.4117 11.3626C27.5365 11.173 27.7451 11.8544 27.9147 11.8823C27.8056 11.2405 27.6176 10.7511 27.61 10.2587C27.1143 9.22267 27.4347 10.3968 27.0324 9.81389C26.5047 8.168 27.4703 9.43194 27.5355 8.68402C28.3353 9.84284 28.7914 11.6388 29.0007 12.3827C28.841 11.4758 28.5828 10.5971 28.2677 9.74702C28.5106 9.84916 27.8765 7.88087 28.5835 9.18441C27.8282 6.40566 25.3513 3.80923 23.0726 2.59086C23.3514 2.84604 23.7034 3.16644 23.5769 3.21668C22.4437 2.54195 22.643 2.48938 22.4807 2.20426C21.5574 1.82863 21.4969 2.23453 20.8853 2.20492C19.1453 1.282 18.8099 1.38015 17.2086 0.801904L17.2815 1.14226C16.1287 0.758319 15.9384 1.28799 14.6924 1.14359C14.6165 1.08437 15.0916 0.92933 15.4825 0.872437C14.368 1.01949 14.4202 0.652852 13.3296 0.913027C13.5984 0.724383 13.8826 0.599619 14.1694 0.439255C13.2604 0.494484 11.9995 0.968256 12.3887 0.537403C10.9062 1.19882 8.27316 2.1274 6.79561 3.51279L6.74903 3.20237C6.07198 4.01517 3.79661 5.62979 3.61528 6.68247L3.43429 6.72472C3.08196 7.32126 2.85405 7.99732 2.57458 8.61116C2.11378 9.39635 1.89919 8.91326 1.96473 9.03636C1.05844 10.8739 0.608293 12.418 0.21936 13.6843C0.496504 14.0985 0.226014 16.1779 0.330817 17.8421C-0.124324 26.0612 6.09926 34.0415 12.9021 35.884C13.8992 36.2407 15.3821 36.227 16.6434 36.2636C15.1552 35.8381 14.9629 36.0381 13.5133 35.5327C12.4676 35.0403 12.2383 34.478 11.4977 33.8352L11.7909 34.3532C10.3383 33.8392 10.9461 33.7171 9.76434 33.3428L10.0774 32.9339C9.60664 32.8983 8.83044 32.1404 8.61817 31.7209L8.10315 31.7412C7.48431 30.9776 7.1546 30.4273 7.17856 30.0011L7.0122 30.2976C6.82356 29.9738 4.7355 27.434 5.81879 28.0252C5.6175 27.8412 5.35001 27.7257 5.05989 27.1987L5.28047 26.9465C4.75912 26.2758 4.32095 25.4161 4.35422 25.1296C4.63236 25.5053 4.82533 25.5755 5.01631 25.6397C3.69979 22.3732 3.62593 25.4597 2.62881 22.3146L2.83975 22.2977C2.67805 22.0541 2.5799 21.7896 2.44982 21.5301L2.54164 20.6152C1.59377 19.5192 2.27648 15.9553 2.41322 14.0007C2.50804 13.2058 3.20439 12.3598 3.73406 11.0329L3.41133 10.9774C4.02817 9.90139 6.93335 6.65619 8.27881 6.8232C8.93058 6.00442 8.14939 6.82021 8.02197 6.61393C9.4536 5.1324 9.90375 5.56724 10.8699 5.30074C11.912 4.68225 9.97561 5.54196 10.4697 5.06486C12.2709 4.60472 11.7463 4.01883 14.0962 3.78527C14.344 3.92634 13.5209 4.00319 13.3143 4.18618C14.8151 3.4519 18.0637 3.61892 20.1737 4.59375C22.6221 5.73792 25.3729 9.1202 25.4813 12.3025L25.6048 12.3358C25.5422 13.6007 25.7984 15.0636 25.3546 16.4074L25.6567 15.7713Z" fill="#A80030"/>
<path id="Vector_3" d="M10.8113 20.066L10.7275 20.4852C11.1204 21.0188 11.4322 21.5971 11.9339 22.0143C11.5729 21.3096 11.3047 21.0185 10.8113 20.066ZM11.7402 20.0294C11.5323 19.7995 11.4092 19.5226 11.2715 19.2468C11.4032 19.7316 11.673 20.1481 11.9242 20.5717L11.7402 20.0294ZM28.1772 16.4568L28.0894 16.677C27.9273 17.8351 27.5754 18.9585 27.0477 20.0021C27.6333 18.8974 28.0159 17.6966 28.1772 16.4568ZM15.1881 0.360822C15.5923 0.212768 16.1819 0.279642 16.6107 0.182159C16.0518 0.229071 15.4955 0.257018 14.9462 0.327884L15.1881 0.360822ZM0.99652 7.90724C1.08968 8.76962 0.347744 9.10432 1.16088 8.53572C1.59672 7.55391 0.990531 8.26457 0.99652 7.90724ZM0.04099 11.8984C0.228303 11.3235 0.262239 10.9781 0.333771 10.6454C-0.183919 11.3072 0.0955537 11.4482 0.04099 11.8984Z" fill="#A80030"/>
</g>
</g>
<defs>
<clipPath id="clip0_91_1112">
<rect width="28.959" height="36.0802" fill="white" transform="translate(0.0410156 0.182388)"/>
</clipPath>
</defs>
</svg>
