<svg width="40" height="40" viewBox="0 0 40 40" fill="none" xmlns="http://www.w3.org/2000/svg">
<g clip-path="url(#clip0_91_1258)">
<path d="M37.8175 2.72998C39.7472 4.65855 34.3976 13.1368 33.4932 14.0417C32.5889 14.9447 30.2919 14.1138 28.3632 12.1846C26.4335 10.256 25.6022 7.95841 26.5066 7.05398C27.4105 6.14927 35.8882 0.800267 37.8175 2.72998ZM10.7578 4.77055C7.81175 3.09912 3.61975 1.2397 2.28632 2.57341C0.935182 3.92398 2.86261 8.21027 4.55175 11.1616C6.05622 8.54787 8.18938 6.35113 10.7578 4.77055Z" fill="#B5010F"/>
<path d="M34.8747 13.3766C35.146 14.2966 35.0973 15.0566 34.6573 15.4957C33.6297 16.5237 30.8538 15.4295 28.3516 13.048C28.1743 12.8896 28.0015 12.7263 27.8334 12.5583C26.9286 11.6532 26.2246 10.6897 25.7743 9.80246C24.8978 8.23017 24.6786 6.8416 25.341 6.17903C25.702 5.81846 26.2796 5.72017 26.9841 5.84688C27.4436 5.55631 27.986 5.2326 28.5807 4.90103C26.1623 3.6396 23.4127 2.92717 20.496 2.92717C10.8218 2.92717 2.97913 10.7686 2.97913 20.4436C2.97913 30.1169 10.822 37.9593 20.496 37.9593C30.1703 37.9593 38.0126 30.1169 38.0126 20.4436C38.0126 17.3193 37.1926 14.3897 35.7601 11.8499C35.4506 12.4149 35.1496 12.9325 34.8747 13.3766Z" fill="#B5010F"/>
</g>
<defs>
<clipPath id="clip0_91_1258">
<rect width="36.5714" height="36" fill="white" transform="translate(1.71423 2)"/>
</clipPath>
</defs>
</svg>
