<svg width="40" height="39" viewBox="0 0 40 39" fill="none" xmlns="http://www.w3.org/2000/svg">
<g id="Layer_1" clip-path="url(#clip0_91_1080)">
<path id="Vector" d="M5.72243 24.7656C8.86099 24.7656 11.4053 22.1211 11.4053 18.8588C11.4053 15.5966 8.86099 12.952 5.72243 12.952C2.58386 12.952 0.0395508 15.5966 0.0395508 18.8588C0.0395508 22.1211 2.58386 24.7656 5.72243 24.7656Z" fill="#E9500E"/>
<path id="Vector_2" d="M29.3894 11.8136C32.528 11.8136 35.0723 9.16905 35.0723 5.90681C35.0723 2.64457 32.528 0 29.3894 0C26.2509 0 23.7065 2.64457 23.7065 5.90681C23.7065 9.16905 26.2509 11.8136 29.3894 11.8136Z" fill="#E9500E"/>
<path id="Vector_3" d="M18.5392 34.0602C16.5307 33.6188 14.6417 32.7184 13.0093 31.4244C11.3769 30.1304 10.042 28.4751 9.10115 26.5784C7.58043 27.296 5.88483 27.5127 4.24219 27.1992C5.37834 30.1191 7.18715 32.7043 9.50965 34.7274C11.8321 36.7506 14.5972 38.1498 17.5618 38.8021C18.8879 39.0974 20.241 39.2422 21.5972 39.2337C20.5539 37.8119 19.9713 36.0829 19.9333 34.2952C19.4651 34.2411 18.9998 34.1627 18.5392 34.0602Z" fill="#E9500E"/>
<path id="Vector_4" d="M28.109 39.9996C31.2476 39.9996 33.7919 37.355 33.7919 34.0928C33.7919 30.8305 31.2476 28.1859 28.109 28.1859C24.9705 28.1859 22.4261 30.8305 22.4261 34.0928C22.4261 37.355 24.9705 39.9996 28.109 39.9996Z" fill="#E9500E"/>
<path id="Vector_5" d="M36.0171 31.9235C38.4532 28.7292 39.8552 24.816 40.0225 20.7435C40.1899 16.671 39.114 12.6478 36.9488 9.24923C36.2924 10.8558 35.1768 12.2138 33.7532 13.1393C34.89 15.3701 35.446 17.871 35.3661 20.394C35.2863 22.9171 34.5732 25.3746 33.2977 27.5228C34.6281 28.6548 35.58 30.1951 36.0171 31.9235ZM5.28394 10.3879C5.42814 10.3797 5.57246 10.3756 5.71687 10.3757C7.2395 10.3768 8.73177 10.8185 10.0266 11.6513C11.2793 9.77054 12.9449 8.22689 14.8856 7.14807C16.8262 6.06926 18.9862 5.4863 21.1866 5.44744C21.2785 3.7054 21.88 2.03407 22.9107 0.657062C15.7644 0.0688573 8.82042 3.90191 5.28394 10.3879Z" fill="#E9500E"/>
</g>
<defs>
<clipPath id="clip0_91_1080">
<rect width="40" height="40" fill="white" transform="translate(0.0394287)"/>
</clipPath>
</defs>
</svg>
