<svg width="32" height="32" viewBox="0 0 32 32" fill="none" xmlns="http://www.w3.org/2000/svg">
<g id="24 / benefits / bak">
<path id="Vector" opacity="0.5" d="M2.6665 16C2.6665 9.71457 2.6665 6.57187 4.61913 4.61925C6.57175 2.66663 9.71444 2.66663 15.9998 2.66663C22.2852 2.66663 25.4279 2.66663 27.3806 4.61925C29.3332 6.57187 29.3332 9.71457 29.3332 16C29.3332 22.2854 29.3332 25.4281 27.3806 27.3807C25.4279 29.3333 22.2852 29.3333 15.9998 29.3333C9.71444 29.3333 6.57175 29.3333 4.61913 27.3807C2.6665 25.4281 2.6665 22.2854 2.6665 16Z" fill="#858892"/>
<path id="Vector_2" fill-rule="evenodd" clip-rule="evenodd" d="M22.2083 3.66663C21.656 3.66663 21.2083 3.21891 21.2083 2.66663C21.2083 2.11434 21.656 1.66663 22.2083 1.66663H29.3333C29.8856 1.66663 30.3333 2.11434 30.3333 2.66663V9.79163C30.3333 10.3439 29.8856 10.7916 29.3333 10.7916C28.781 10.7916 28.3333 10.3439 28.3333 9.79163V5.08084L18.4142 15H21.3333C21.8856 15 22.3333 15.4477 22.3333 16C22.3333 16.5522 21.8856 17 21.3333 17H16C15.4477 17 15 16.5522 15 16V10.6666C15 10.1143 15.4477 9.66663 16 9.66663C16.5523 9.66663 17 10.1143 17 10.6666V13.5857L26.9191 3.66663H22.2083Z" fill="#858892"/>
</g>
</svg>
