<svg width="32" height="32" viewBox="0 0 32 32" fill="none" xmlns="http://www.w3.org/2000/svg">
<g id="24 / benefits / security">
<path id="Vector" opacity="0.5" d="M28 15.9884V13.8888C28 9.62539 28 7.49366 27.4966 6.7765C26.9933 6.05934 24.9889 5.37324 20.9801 4.00102L20.2164 3.73958C18.1267 3.02428 17.0819 2.66663 16 2.66663V29.3333C17.359 29.3333 17.84 29.1232 18.8019 28.703C22.348 27.1539 28 23.5059 28 15.9884Z" fill="#858892"/>
<path id="Vector_2" fill-rule="evenodd" clip-rule="evenodd" d="M4.50335 6.7765C4 7.49366 4 9.62539 4 13.8888V15.9884C4 23.5059 9.65195 27.1539 13.1981 28.703C14.16 29.1232 14.641 29.3333 16 29.3333V2.66663C14.9181 2.66663 13.8733 3.02428 11.7836 3.73958L11.0199 4.00102C7.0111 5.37324 5.00671 6.05934 4.50335 6.7765Z" fill="#858892"/>
</g>
</svg>
