<svg width="33" height="32" viewBox="0 0 33 32" fill="none" xmlns="http://www.w3.org/2000/svg">
<g id="24 / benefits / news">
<g id="Vector">
<path d="M8.24549 15.9995C8.24549 16.7792 7.61712 17.4113 6.84199 17.4113C6.06685 17.4113 5.43848 16.7792 5.43848 15.9995C5.43848 15.2198 6.06685 14.5878 6.84199 14.5878C7.61712 14.5878 8.24549 15.2198 8.24549 15.9995Z" fill="#858892"/>
<path d="M8.24549 24.4701C8.24549 25.2498 7.61712 25.8819 6.84199 25.8819C6.06685 25.8819 5.43848 25.2498 5.43848 24.4701C5.43848 23.6904 6.06685 23.0584 6.84199 23.0584C7.61712 23.0584 8.24549 23.6904 8.24549 24.4701Z" fill="#858892"/>
<path d="M8.24549 7.52895C8.24549 8.30865 7.61712 8.94072 6.84199 8.94072C6.06685 8.94072 5.43848 8.30865 5.43848 7.52895C5.43848 6.74926 6.06685 6.11719 6.84199 6.11719C7.61712 6.11719 8.24549 6.74926 8.24549 7.52895Z" fill="#858892"/>
</g>
<g id="Vector_2" opacity="0.5">
<path fill-rule="evenodd" clip-rule="evenodd" d="M5.35367 20.9664C5.7157 20.9416 6.17822 20.9412 6.84178 20.9412H26.4909C27.1545 20.9412 27.617 20.9416 27.979 20.9664C28.3347 20.9908 28.5419 21.0365 28.7001 21.1024C29.2159 21.3173 29.6258 21.7296 29.8394 22.2484C29.9049 22.4075 29.9503 22.6159 29.9746 22.9737C29.9993 23.3379 29.9997 23.8031 29.9997 24.4706C29.9997 25.138 29.9993 25.6033 29.9746 25.9675C29.9503 26.3253 29.9049 26.5337 29.8394 26.6927C29.6258 27.2116 29.2159 27.6239 28.7001 27.8388C28.5419 27.9047 28.3347 27.9504 27.979 27.9748C27.617 27.9996 27.1545 28 26.4909 28H6.84178C6.17822 28 5.7157 27.9996 5.35367 27.9748C4.99795 27.9504 4.79079 27.9047 4.63262 27.8388C4.11677 27.6239 3.70693 27.2116 3.49326 26.6927C3.42775 26.5337 3.38236 26.3253 3.35809 25.9675C3.33339 25.6033 3.33301 25.138 3.33301 24.4706C3.33301 23.8031 3.33339 23.3379 3.35809 22.9737C3.38236 22.6159 3.42775 22.4075 3.49326 22.2484C3.70693 21.7296 4.11677 21.3173 4.63262 21.1024C4.79079 21.0365 4.99795 20.9908 5.35367 20.9664ZM6.84178 25.8824C7.61692 25.8824 8.24529 25.2503 8.24529 24.4706C8.24529 23.6909 7.61692 23.0588 6.84178 23.0588C6.06664 23.0588 5.43827 23.6909 5.43827 24.4706C5.43827 25.2503 6.06664 25.8824 6.84178 25.8824Z" fill="#858892"/>
<path fill-rule="evenodd" clip-rule="evenodd" d="M6.84178 11.0588C6.17823 11.0588 5.7157 11.0584 5.35367 11.0336C4.99795 11.0092 4.79079 10.9635 4.63262 10.8976C4.11677 10.6827 3.70693 10.2704 3.49326 9.75157C3.42775 9.59247 3.38236 9.38409 3.35809 9.02627C3.33339 8.66211 3.33301 8.19687 3.33301 7.52941C3.33301 6.86195 3.33339 6.39671 3.35809 6.03255C3.38236 5.67473 3.42775 5.46635 3.49326 5.30726C3.70693 4.78838 4.11677 4.37612 4.63262 4.1612C4.79079 4.0953 4.99795 4.04964 5.35367 4.02523C5.7157 4.00038 6.17823 4 6.84178 4H26.4909C27.1545 4 27.617 4.00038 27.979 4.02523C28.3347 4.04964 28.5419 4.0953 28.7001 4.1612C29.2159 4.37612 29.6258 4.78838 29.8394 5.30726C29.9049 5.46635 29.9503 5.67473 29.9746 6.03255C29.9993 6.39671 29.9997 6.86195 29.9997 7.52941C29.9997 8.19687 29.9993 8.66211 29.9746 9.02627C29.9503 9.38409 29.9049 9.59247 29.8394 9.75157C29.6258 10.2704 29.2159 10.6827 28.7001 10.8976C28.5419 10.9635 28.3347 11.0092 27.979 11.0336C27.617 11.0584 27.1545 11.0588 26.4909 11.0588H6.84178ZM6.84178 12.4706C6.17822 12.4706 5.7157 12.471 5.35367 12.4958C4.99795 12.5202 4.79079 12.5659 4.63262 12.6318C4.11677 12.8467 3.70693 13.259 3.49326 13.7778C3.42775 13.9369 3.38236 14.1453 3.35809 14.5031C3.33339 14.8673 3.33301 15.3325 3.33301 16C3.33301 16.6675 3.33339 17.1327 3.35809 17.4969C3.38236 17.8547 3.42775 18.0631 3.49326 18.2222C3.70693 18.741 4.11677 19.1533 4.63262 19.3682C4.79079 19.4341 4.99795 19.4798 5.35367 19.5042C5.7157 19.529 6.17823 19.5294 6.84178 19.5294H26.4909C27.1545 19.5294 27.617 19.529 27.979 19.5042C28.3347 19.4798 28.5419 19.4341 28.7001 19.3682C29.2159 19.1533 29.6258 18.741 29.8394 18.2222C29.9049 18.0631 29.9503 17.8547 29.9746 17.4969C29.9993 17.1327 29.9997 16.6675 29.9997 16C29.9997 15.3325 29.9993 14.8673 29.9746 14.5031C29.9503 14.1453 29.9049 13.9369 29.8394 13.7778C29.6258 13.259 29.2159 12.8467 28.7001 12.6318C28.5419 12.5659 28.3347 12.5202 27.979 12.4958C27.617 12.471 27.1545 12.4706 26.4909 12.4706H6.84178ZM8.24529 16C8.24529 16.7797 7.61692 17.4118 6.84178 17.4118C6.06664 17.4118 5.43827 16.7797 5.43827 16C5.43827 15.2203 6.06664 14.5882 6.84178 14.5882C7.61692 14.5882 8.24529 15.2203 8.24529 16ZM6.84178 8.94118C7.61692 8.94118 8.24529 8.30911 8.24529 7.52941C8.24529 6.74972 7.61692 6.11765 6.84178 6.11765C6.06664 6.11765 5.43827 6.74972 5.43827 7.52941C5.43827 8.30911 6.06664 8.94118 6.84178 8.94118Z" fill="#858892"/>
</g>
</g>
</svg>
