<svg width="32" height="32" viewBox="0 0 32 32" fill="none" xmlns="http://www.w3.org/2000/svg">
<g id="24 / benefits / time">
<path id="Vector" opacity="0.5" d="M15.9998 29.3333C22.448 29.3333 27.6753 24.155 27.6753 17.7671C27.6753 11.3793 22.448 6.20093 15.9998 6.20093C9.55154 6.20093 4.32422 11.3793 4.32422 17.7671C4.32422 24.155 9.55154 29.3333 15.9998 29.3333Z" fill="#858892"/>
<path id="Vector_2" d="M15.9998 11.6627C16.5372 11.6627 16.9728 12.0943 16.9728 12.6266V17.3679L19.931 20.2984C20.311 20.6748 20.311 21.2851 19.931 21.6615C19.551 22.0379 18.935 22.0379 18.555 21.6615L15.3118 18.4487C15.1294 18.2679 15.0269 18.0227 15.0269 17.7671V12.6266C15.0269 12.0943 15.4625 11.6627 15.9998 11.6627Z" fill="#858892"/>
<g id="Vector_3">
<path fill-rule="evenodd" clip-rule="evenodd" d="M10.9873 3.11977C11.2721 3.57118 11.1336 4.16582 10.6779 4.44795L5.48876 7.66079C5.03308 7.94291 4.43282 7.80569 4.14802 7.35428C3.86323 6.90287 4.00175 6.30822 4.45743 6.0261L9.64659 2.81326C10.1023 2.53113 10.7025 2.66836 10.9873 3.11977Z" fill="#858892"/>
<path fill-rule="evenodd" clip-rule="evenodd" d="M21.0127 3.11977C21.2975 2.66836 21.8978 2.53113 22.3534 2.81326L27.5426 6.0261C27.9983 6.30823 28.1368 6.90287 27.852 7.35428C27.5672 7.80569 26.9669 7.94291 26.5112 7.66079L21.3221 4.44795C20.8664 4.16582 20.7279 3.57117 21.0127 3.11977Z" fill="#858892"/>
</g>
</g>
</svg>
