<svg width="32" height="32" viewBox="0 0 32 32" fill="none" xmlns="http://www.w3.org/2000/svg">
<g id="24 / benefits / help">
<path id="Vector" opacity="0.5" fill-rule="evenodd" clip-rule="evenodd" d="M16 2.66663C14.5149 2.66663 13.1624 3.46757 10.4574 5.06944L9.54256 5.61124C6.8376 7.21311 5.48512 8.01405 4.74256 9.33329C4 10.6525 4 12.2544 4 15.4582V16.5417C4 19.7455 4 21.3474 4.74256 22.6666C5.48512 23.9859 6.8376 24.7868 9.54256 26.3887L10.4574 26.9305C13.1624 28.5324 14.5149 29.3333 16 29.3333C17.4851 29.3333 18.8376 28.5324 21.5426 26.9305L22.4574 26.3887C25.1624 24.7868 26.5149 23.9859 27.2574 22.6666C28 21.3474 28 19.7455 28 16.5417V15.4582C28 12.2544 28 10.6525 27.2574 9.33329C26.5149 8.01405 25.1624 7.21311 22.4574 5.61124L21.5426 5.06944C18.8376 3.46757 17.4851 2.66663 16 2.66663Z" fill="#858892"/>
<path id="Vector_2" d="M16 11C13.2386 11 11 13.2386 11 16C11 18.7614 13.2386 21 16 21C18.7614 21 21 18.7614 21 16C21 13.2386 18.7614 11 16 11Z" fill="#858892"/>
</g>
</svg>
